<?xml version="1.0" encoding="utf-8"?>
<!-- Generator: Adobe Illustrator 26.0.3, SVG Export Plug-In . SVG Version: 6.00 Build 0)  -->
<svg version="1.1" id="Ebene_1" xmlns="http://www.w3.org/2000/svg" xmlns:xlink="http://www.w3.org/1999/xlink" x="0px" y="0px"
	 viewBox="0 0 1225.9 441.8" style="enable-background:new 0 0 1225.9 441.8;" xml:space="preserve">
<style type="text/css">
	.st0{fill:#0C7AC0;}
	.st1{fill:#010202;}
</style>
<rect x="118.4" y="260.7" class="st0" width="44.5" height="177.8"/>
<path class="st1" d="M305.8,217.3v19.1h37.5V129.5c0-6.9-0.3-13.8-1-20.7c-0.7-6.7-2.7-13.1-5.7-19.1c-5.5-11.4-15-20.4-26.7-25.3
	c-11.7-5-25.5-7.6-40.9-7.6c-20.5,0-37,4.5-49.2,13.5c-12.1,8.8-20.8,21.4-24.8,35.8l-0.6,2l38.6,12.1l0.6-2
	c2.7-8.3,7.3-13.9,14-17.3c6.6-3.4,13.9-5.1,21.3-5.2c12.1,0,20.7,2.6,25.7,7.7c3.4,3.5,5.6,8.6,6.6,15.2l0.3,2l-2,0.3
	c-5.8,0.9-11.1,1.6-16.1,2.3c-10.7,1.5-20.8,3.2-30.1,5c-8.2,1.5-16.3,3.6-24.3,6.1c-9.2,3.1-16.9,7.2-22.8,12.1
	c-5.8,4.8-10.3,10.9-13.2,17.8c-2.9,7.3-4.4,15.1-4.3,23c-0.1,9.4,2.3,18.6,6.8,26.8c4.7,8.3,11.7,15.1,20.2,19.5
	c8.8,4.8,19.7,7.3,32.3,7.3c15.7,0,28.9-3,39.5-8.9c5.5-3.1,10.5-7,14.9-11.5L305.8,217.3z M301.2,158.7c0,1.6-0.1,3.3-0.2,5
	c-0.1,5.4-1.2,10.8-3.2,15.9l-0.1,0.2c-1.6,4.3-4,8.3-7,11.8c-3.8,4.5-8.6,8.1-13.9,10.7c-5.8,2.9-12.9,4.4-21.2,4.4
	c-4.9,0.1-9.7-0.7-14.2-2.6c-3.4-1.5-6.3-3.9-8.4-6.9c-1.9-3-2.9-6.5-2.8-10c-0.1-3,0.7-6,2.1-8.6c1.6-2.6,3.8-4.9,6.4-6.6
	c3.3-2.2,6.9-4,10.7-5.3h0.1c5-1.6,10.1-2.9,15.3-3.9c5.9-1.2,13-2.5,21.1-3.9c3.8-0.6,8.1-1.3,12.9-2.1l2.4-0.4L301.2,158.7z"/>
<path class="st1" d="M427.9,61.6V14.2h-42v47.4h-31v34h31v69c0,9.6,0.1,18.4,0.3,26.1c0.3,8.3,2.5,16.3,6.4,23.6
	c4.5,8.3,11.7,14.9,20.4,18.7c9.4,4,19.6,6.1,29.8,6.2h3.6c10,0,20-1,29.9-2.8l1.7-0.3v-36l-2.4,0.4c-6.6,1-13.2,1.5-19.9,1.6
	c-2.8,0-5.5-0.1-8.1-0.3c-7.7-0.7-13.1-3.8-16.6-9.6c-1.8-2.9-2.8-6.8-2.9-11.6c-0.2-5.1-0.2-11.1-0.2-17.9V95.6H478v-34H427.9z"/>
<rect x="507.5" y="61.6" class="st1" width="42.2" height="174.8"/>
<path class="st1" d="M740.4,196.8c7.2-13.8,10.9-29.9,10.9-47.8s-3.6-33.9-10.8-47.6C733.6,87.8,723,76.5,710,68.7
	c-13-7.8-28.5-11.8-45.9-11.8c-17,0-32.3,3.9-45.3,11.7c-13,7.7-23.6,19-30.6,32.4c-7.3,13.7-11,29.9-11,48
	c0,17.8,3.6,33.9,10.7,47.6c6.9,13.5,17.4,24.8,30.4,32.6c13,7.9,28.4,11.8,45.8,11.8s32.8-4,45.8-11.8
	C722.9,221.4,733.4,210.2,740.4,196.8z M696.2,186.9c-7,9.6-17.5,14.3-32.1,14.3c-14.1,0-24.4-4.6-31.6-14S621.6,165,621.6,149
	c0-10.4,1.5-19.7,4.6-27.6c2.7-7.3,7.5-13.7,13.9-18.2c6.2-4.3,14.3-6.5,24-6.5c14.4,0,24.9,4.6,32,14s10.8,22.3,10.8,38.3
	C706.9,164.5,703.3,177.2,696.2,186.9L696.2,186.9z"/>
<path class="st1" d="M830.1,106.6c3.4-3.4,7.5-6,12.1-7.6c4.4-1.5,9-2.3,13.7-2.3c8.6,0,15.4,1.8,20.3,5.4c5,3.6,8.9,8.5,11.3,14.1
	c2.6,5.8,4.3,12,5,18.3c0.7,5.8,1.1,11.7,1.1,17.6v84.2h42.7V139c-0.1-5.4-0.4-10.8-1-16.2c-0.8-7.2-2.4-14.4-4.6-21.3v-0.1l0,0
	c-2.5-7.7-6.3-14.9-11.1-21.3c-5.4-7.1-12.3-12.8-20.3-16.7c-8.5-4.3-19.3-6.5-32.2-6.5c-16.3,0-30.3,3.6-41.5,10.8
	c-3.1,2-6.1,4.2-8.8,6.7l-3.3,3V61.6h-38.1v174.7H818v-89.7c0-10.2,1.1-18.6,3.4-25S826.5,110.2,830.1,106.6z"/>
<path class="st1" d="M1074.5,217.3v19.1h37.5V129.5c0-6.9-0.3-13.8-1-20.7c-0.7-6.7-2.6-13.2-5.7-19.1c-5.5-11.4-15-20.4-26.7-25.3
	c-11.7-5-25.5-7.6-40.9-7.6c-20.5,0-37,4.5-49.2,13.5c-12.1,8.8-20.8,21.4-24.8,35.8l-0.6,2l38.6,12.1l0.6-2
	c2.7-8.3,7.3-13.9,14-17.3c6.6-3.4,14-5.2,21.4-5.2c12.1,0,20.7,2.6,25.7,7.7c3.4,3.5,5.6,8.6,6.6,15.2l0.3,2l-2,0.3
	c-5.8,0.9-11.1,1.6-16.1,2.3c-10.7,1.5-20.8,3.2-30.1,5c-8.2,1.5-16.4,3.6-24.4,6.1c-9.2,3.1-16.9,7.2-22.8,12.1
	c-5.8,4.8-10.3,10.9-13.2,17.9c-2.9,7.3-4.4,15.1-4.3,23c-0.1,9.4,2.3,18.6,6.8,26.8c4.7,8.3,11.7,15.1,20.2,19.5
	c8.8,4.8,19.7,7.3,32.3,7.3c15.7,0,28.9-3,39.5-8.9c5.5-3.1,10.5-7,14.9-11.5L1074.5,217.3z M1069.8,158.7c-0.1,1.6-0.1,3.3-0.2,5
	c-0.1,5.4-1.2,10.8-3.2,15.9l-0.1,0.2c-1.6,4.3-4,8.3-7,11.8c-3.8,4.5-8.6,8.1-13.9,10.7c-5.8,2.9-12.9,4.4-21.2,4.4
	c-4.9,0.2-9.7-0.7-14.2-2.6c-3.4-1.5-6.3-3.9-8.4-6.9c-1.9-3-2.9-6.5-2.8-10c-0.1-3,0.7-6,2.2-8.6c1.6-2.6,3.8-4.9,6.4-6.6
	c3.3-2.2,6.9-4,10.7-5.3l0,0c5.1-1.6,10.2-2.9,15.4-3.9c5.9-1.2,13-2.5,21.1-3.9c3.8-0.6,8.1-1.3,12.9-2.1l2.4-0.4L1069.8,158.7z"/>
<rect x="1145.7" class="st1" width="42.2" height="236.4"/>
<rect x="510.3" y="6.2" transform="matrix(2.967024e-03 -1 1 2.967024e-03 501.0626 553.1863)" class="st1" width="35.2" height="38.2"/>
<path class="st1" d="M255.6,307.1c3.4-3.5,7.5-6.1,12.1-7.6c4.4-1.5,9-2.3,13.7-2.3c8.6,0,15.4,1.8,20.3,5.5
	c5,3.6,8.9,8.5,11.3,14.1c2.6,5.8,4.3,12,5,18.3c0.7,5.8,1.1,11.7,1.1,17.6v84.2h42.7v-97.3c0-4.2-0.4-9.6-1-16.2
	c-0.8-7.2-2.4-14.4-4.6-21.3c-2.4-7.7-6.2-15-11-21.5c-5.4-7.1-12.3-12.8-20.3-16.7c-8.5-4.3-19.3-6.5-32.2-6.5
	c-16.3,0-30.3,3.6-41.6,10.8c-3.1,2-6,4.2-8.8,6.6l-3.3,2.9v-15.5h-38.2V437h42.7v-89.8c0-10.2,1.1-18.6,3.4-25
	S252,310.7,255.6,307.1z"/>
<polygon class="st1" points="497.3,436.8 553.1,436.8 480.5,350.6 479.5,349.4 480.5,348.1 547.2,262.1 494.4,262.1 438.7,335.4 
	435.1,340.1 435.1,334.2 435.1,251.4 392.5,251.4 392.1,436.8 435.1,436.8 435.1,364.3 435.1,358.5 438.7,363 "/>
<path class="st1" d="M663.7,417.8v19h37.5V330c0-6.9-0.3-13.8-1-20.7c-0.7-6.7-2.6-13.1-5.7-19.1c-5.5-11.4-15-20.4-26.7-25.3
	c-11.7-5-25.5-7.6-40.9-7.6c-20.5,0-37,4.5-49.2,13.5c-12.1,8.8-20.8,21.4-24.8,35.8l-0.6,2l38.7,12.1l0.6-1.9
	c2.7-8.3,7.3-13.9,14-17.3c6.6-3.4,13.9-5.1,21.3-5.2c12.1,0,20.7,2.6,25.7,7.7c3.4,3.6,5.7,8.7,6.7,15.2l0.3,2l-2,0.3
	c-5.8,0.9-11.1,1.6-16.2,2.3c-10.7,1.5-20.8,3.2-30.1,5c-8.2,1.5-16.4,3.6-24.4,6.1c-9.2,3.1-16.9,7.2-22.8,12.1
	c-5.8,4.8-10.3,10.9-13.2,17.9c-2.9,7.3-4.4,15.1-4.3,23c-0.1,9.4,2.3,18.6,6.8,26.8c4.7,8.3,11.7,15.1,20.2,19.5
	c8.8,4.8,19.7,7.3,32.3,7.3c15.7,0,28.9-3,39.5-8.9c5.5-3.1,10.5-7,14.9-11.5L663.7,417.8z M659,359.2c-0.1,1.6-0.1,3.2-0.2,5
	c-0.1,5.4-1.2,10.8-3.2,15.9l-0.1,0.2c-1.6,4.3-4,8.3-7,11.8c-3.8,4.5-8.6,8.1-13.9,10.7c-5.8,2.9-12.9,4.4-21.2,4.4
	c-4.9,0.2-9.7-0.8-14.2-2.7c-3.4-1.5-6.3-3.9-8.4-6.9c-1.9-3-2.9-6.5-2.8-10c-0.1-3,0.7-6,2.2-8.6c1.6-2.6,3.8-4.9,6.4-6.6
	c3.3-2.2,6.9-4,10.7-5.3h0.1c5.1-1.6,10.2-2.9,15.4-4c5.9-1.2,13-2.5,21.1-3.9c4-0.7,8.3-1.4,12.9-2.1l2.4-0.4L659,359.2z"/>
<path class="st1" d="M872.2,384.4c0-9.2-1.9-17.1-5.7-23.6s-10-12.2-18.5-16.8c-8.3-4.5-19.4-8.6-33.1-12.1
	c-13.1-3.3-23.2-6.2-29.8-8.5c-7.9-2.7-11.2-5-12.5-6.4c-1.8-1.8-2.8-4.3-2.8-6.9c0-5,2.3-8.9,7.2-11.7c4.4-2.6,10.1-3.9,17-3.9
	c1.1,0,2.3,0,3.5,0.1c8.9,0.5,16.1,2.8,21.4,6.7c5.1,3.8,8.4,9.5,9,15.8l0.3,2.2l43-7.7l-0.3-2c-1.4-10.2-5.6-19.8-12.1-27.7
	c-6.9-8.1-15.8-14.3-25.7-18.1c-10.5-4.2-22.6-6.3-36.1-6.3c-13.8,0-26,2.2-36.2,6.6s-18.5,10.8-24.2,19c-5.9,8.5-8.9,18.7-8.8,29
	c0,8.9,2,16.6,5.8,22.9s10.3,11.8,19,16.3c8.5,4.4,20.1,8.6,34.6,12.4c12.7,3.3,22.3,6.1,28.4,8.3c5.7,2,9.6,4.2,11.1,6.2
	c1.7,2.3,2.5,5.2,2.3,8.1c0.2,5.3-2.3,10.3-6.7,13.2c-4.6,3.4-11.4,5.1-20,5.1c-9.9,0-18.2-2.3-24.7-6.9
	c-6.4-4.4-10.8-11.1-12.5-18.7l-0.4-1.9l-42.9,6.6l0.3,2.1c2.9,17.6,11.3,31.5,24.8,41.3s31.2,14.6,52.6,14.6
	c22.4,0,40.2-5.1,53-15.1S872.2,402.1,872.2,384.4z"/>
<path class="st1" d="M1037,384.4c0-9.2-1.9-17.1-5.7-23.6s-10-12.2-18.5-16.8c-8.3-4.5-19.4-8.6-33.1-12.1
	c-13.1-3.3-23.2-6.2-29.8-8.5c-7.9-2.7-11.2-5-12.5-6.4c-1.8-1.8-2.8-4.3-2.7-6.9c0-5,2.3-8.9,7.2-11.7c4.4-2.6,10.1-3.9,17-3.9
	c1.1,0,2.3,0,3.5,0.1c8.9,0.5,16.1,2.8,21.4,6.7c5.1,3.8,8.4,9.5,9,15.8l0.3,2.2l43-7.7l-0.3-2c-1.4-10.2-5.6-19.8-12.2-27.7
	c-6.9-8.1-15.8-14.3-25.7-18.1c-10.5-4.2-22.6-6.3-36.1-6.3c-13.8,0-26,2.2-36.2,6.6s-18.5,10.8-24.2,19c-5.9,8.5-8.9,18.7-8.8,29
	c0,8.9,2,16.6,5.8,22.9s10.3,11.8,19,16.3c8.5,4.4,20.1,8.6,34.6,12.4c12.7,3.3,22.3,6.1,28.4,8.3c5.7,2,9.6,4.2,11.1,6.2
	c1.7,2.3,2.5,5.2,2.3,8.1c0.2,5.3-2.3,10.3-6.7,13.2c-4.6,3.4-11.4,5.1-20,5.1c-9.9,0-18.2-2.3-24.7-6.9
	c-6.4-4.4-10.9-11.1-12.5-18.7l-0.4-1.9l-42.8,6.6l0.3,2.1c2.9,17.6,11.3,31.5,24.8,41.4s31.1,14.6,52.5,14.6
	c22.4,0,40.2-5.1,53-15.1S1037,402.1,1037,384.4z"/>
<path class="st1" d="M956.5,296.4L956.5,296.4z"/>
<path class="st1" d="M1215,397.2c7.2-13.8,10.9-29.9,10.9-47.8s-3.6-33.9-10.8-47.6c-6.9-13.5-17.5-24.8-30.5-32.6
	c-13-7.9-28.5-11.8-45.9-11.8c-17,0-32.3,3.9-45.3,11.7c-13,7.8-23.6,19-30.6,32.4c-7.3,13.7-11,29.9-11,48
	c0,17.8,3.6,33.9,10.7,47.6c6.9,13.5,17.4,24.8,30.4,32.6c13,7.9,28.4,11.8,45.8,11.8s32.8-4,45.8-11.8
	C1197.5,421.9,1208.1,410.7,1215,397.2z M1170.8,387.4c-7,9.6-17.5,14.3-32.1,14.3c-14.1,0-24.4-4.6-31.6-14s-10.9-22.3-10.9-38.3
	c0-10.4,1.5-19.7,4.6-27.6c2.7-7.3,7.5-13.7,13.9-18.2c6.2-4.3,14.3-6.5,24-6.5c14.4,0,24.9,4.6,32,14s10.8,22.3,10.8,38.3
	C1181.5,364.9,1177.9,377.7,1170.8,387.4L1170.8,387.4z"/>
<path class="st1" d="M106.6,109.8c3.6,3.6,6.5,8.7,8.7,15s3.3,14.8,3.3,25l-0.2,46.7v43.2h44.5v-43.1l-0.3-54.6
	c-0.1-5.4-0.5-10.8-1.1-16.2c-0.8-7.2-2.4-14.4-4.6-21.3c-2.5-7.7-6.2-14.9-11.1-21.4c-5.5-7-12.4-12.7-20.4-16.7
	c-8.4-4.3-19.2-6.5-31.9-6.5h-24c-12.8,0-23.5,2.2-31.9,6.5c-8,3.9-15,9.6-20.4,16.7C12.3,89.5,8.5,96.6,6,104.3
	c-2.3,6.9-3.8,14.1-4.6,21.3c-0.7,6.6-1.1,12.1-1.1,16.3L0,239.7l44.5-0.1l-0.3-89.7c0-10.2,1.1-18.6,3.3-25s5.1-11.4,8.7-15
	c3.3-3.5,7.4-6.1,12-7.7c4.2-1.4,8.6-2.2,13.1-2.2h0.1c4.5,0.1,8.9,0.8,13.1,2.2C99.1,103.7,103.2,106.3,106.6,109.8z"/>
<rect x="118.4" y="198.5" class="st0" width="44.5" height="41.2"/>
</svg>
